<svg id="Layer_1" data-name="Layer 1" xmlns="http://www.w3.org/2000/svg" viewBox="0 0 82.3 46.91"><defs><style>.cls-1{fill:#fff;}.cls-2{fill:#231f20;}</style></defs><title>Artboard 1</title><path class="cls-1" d="M0,0C6.38,6.82,10.86,13.27,27.53,14.35s24,1,29.57,5.51,4,11.64-3.45,9.07S40.24,17.78,40.24,17.78"/><path class="cls-2" d="M0,0C3.06,2.64,5.89,5.55,9.18,7.63a29.52,29.52,0,0,0,10.7,4.1,83,83,0,0,0,11.73,1c4,.19,8,.37,12.11.74a50.67,50.67,0,0,1,6.19,1A20.52,20.52,0,0,1,56,16.83a17.63,17.63,0,0,1,2.7,2.05l.63.61.57.68a12,12,0,0,1,1,1.47,9.07,9.07,0,0,1,1.13,3.57,5.59,5.59,0,0,1-1.25,4,5.25,5.25,0,0,1-3.72,1.7h-.94c-.3,0-.59-.09-.88-.13a7.86,7.86,0,0,1-1.65-.46,20.08,20.08,0,0,1-5.52-3.19,34.55,34.55,0,0,1-7.89-9.32,44.17,44.17,0,0,0,9,7.72,18.4,18.4,0,0,0,5.15,2.29,6.69,6.69,0,0,0,1.28.21,4.3,4.3,0,0,0,.61.05l.57,0a2.24,2.24,0,0,0,1.56-.82,2.42,2.42,0,0,0,.32-1.68,6,6,0,0,0-.81-2.08,10.8,10.8,0,0,0-3.81-3.33c-3.06-1.73-6.91-2.29-10.81-2.66s-7.93-.63-11.94-1A68.19,68.19,0,0,1,19.2,14.76,28.62,28.62,0,0,1,8,9.2,53.15,53.15,0,0,1,0,0Z"/><path class="cls-1" d="M8.35,18.94c7.76,6.54,20.36,4,27.28,5.21a41.31,41.31,0,0,1,10.92,3.3"/><path class="cls-2" d="M8.35,18.94a27,27,0,0,0,9.28,2.44c3.14.32,6.33.29,9.62.34,1.65,0,3.31.06,5,.21a24.05,24.05,0,0,1,5.14,1,25.94,25.94,0,0,1,9.13,4.55C43.22,26.79,40,26.34,36.8,26a37.33,37.33,0,0,0-4.7-.26H27.19A39,39,0,0,1,17,24.46,16,16,0,0,1,8.35,18.94Z"/><path class="cls-1" d="M21.09,32.1c8.17,5,17.91.25,24,.19A32.81,32.81,0,0,1,55,33.54"/><path class="cls-2" d="M21.09,32.1a23.87,23.87,0,0,0,8.27.69,76,76,0,0,0,8.14-1.37c1.4-.27,2.83-.55,4.34-.71a18.39,18.39,0,0,1,4.63,0A20.61,20.61,0,0,1,55,33.54c-3,0-5.78.11-8.56.33a28.32,28.32,0,0,0-4,.58l-4.16.89a28.78,28.78,0,0,1-9,.58A13.34,13.34,0,0,1,21.09,32.1Z"/><path class="cls-1" d="M33.22,42c3.93,1.73,18.39-.11,26.66-7.27"/><path class="cls-2" d="M33.22,42a16.18,16.18,0,0,0,3.53-.39c1.14-.22,2.25-.45,3.37-.73q3.33-.78,6.6-1.7c2.18-.61,4.34-1.27,6.5-2s4.31-1.54,6.66-2.44A16.28,16.28,0,0,1,54.6,40a24.43,24.43,0,0,1-6.8,3,25.78,25.78,0,0,1-7.37,1,17.51,17.51,0,0,1-3.74-.43A8.18,8.18,0,0,1,33.22,42Z"/><path class="cls-2" d="M72.26,23.19a10,10,0,1,0,10,10.05A10,10,0,0,0,72.26,23.19ZM73,27.5c.52-1.55,1.8-2.51,2.86-2.15s1.47,1.9,1,3.45S75,31.3,74,30.94,72.49,29,73,27.5Zm-3.94-2.4c1.06-.31,2.29.74,2.74,2.34s0,3.14-1.1,3.45-2.29-.75-2.74-2.35S68,25.4,69.08,25.1Zm-4.86,7.12c-.84-1.47-.72-3.12.28-3.69s2.48.14,3.33,1.6.72,3.12-.28,3.69S65.06,33.68,64.22,32.22ZM73.81,41c-2.94.14-5.62.23-6.83-1.72a3.45,3.45,0,0,1,.56-4.26L67.6,35c.59-.55,1.09-.9,1.25-1.31a3.69,3.69,0,0,1,.76-1.22c1.79-1.83,4-1.57,5.14,0,1.31,1.78.94,2.16,2.35,3.28S77.66,40.84,73.81,41Zm3-7.07c-.93-.64-.91-2.26,0-3.62s2.45-1.94,3.38-1.3.91,2.26,0,3.62S77.7,34.6,76.77,34Z"/></svg>