<svg id="Layer_1" data-name="Layer 1" xmlns="http://www.w3.org/2000/svg" viewBox="0 0 612 792"><defs><style>.cls-1{fill:#fff;}.cls-2{fill:#231f20;}</style></defs><title>Artboard 1</title><path class="cls-1" d="M45.07,218.08c21.58,23.07,36.73,44.86,93.11,48.53s81,3.2,100,18.62,13.44,39.36-11.68,30.69-45.32-37.73-45.32-37.73"/><path class="cls-2" d="M45.07,218.08c5.19,4.45,10.19,9.11,15.28,13.55a137.06,137.06,0,0,0,15.83,12.15c11,7.1,23.39,11.38,36.19,13.75a183.73,183.73,0,0,0,19.52,2.35c6.5.43,13.36.68,20.12,1,13.57.62,27.14,1.17,41,2.53a166.4,166.4,0,0,1,21,3.28,70.83,70.83,0,0,1,20.81,8.17l2.4,1.56c.4.27.81.52,1.2.79l1.13.87c1.5,1.17,3,2.3,4.47,3.68a39.27,39.27,0,0,1,7.5,9.44,29.23,29.23,0,0,1,3.8,12.19,21.26,21.26,0,0,1-.71,7A17.1,17.1,0,0,1,251,317a16.23,16.23,0,0,1-6.09,4.37,19.45,19.45,0,0,1-6.68,1.42,30.32,30.32,0,0,1-11.81-2,68,68,0,0,1-18.66-10.9,107,107,0,0,1-14.83-14.73,117,117,0,0,1-11.77-16.9c9.26,10,19.39,19.13,30.57,26a66.26,66.26,0,0,0,17.4,7.73,22.24,22.24,0,0,0,8.27.68,9,9,0,0,0,3.15-1,5.84,5.84,0,0,0,2-1.71,7.73,7.73,0,0,0,1-5.55,17.73,17.73,0,0,0-2.73-6.93,29.19,29.19,0,0,0-5.48-6.17c-.57-.44-1.05-.92-1.69-1.34l-1.83-1.3-.9-.65-1-.57L228,286.28a59.74,59.74,0,0,0-17.17-6.15,159.91,159.91,0,0,0-19.31-2.84c-6.6-.71-13.31-1.2-20.05-1.69l-20.3-1.53c-13.39-1.05-27.59-2.2-41.25-5.84-1.72-.43-3.41-1-5.1-1.52s-3.4-1-5-1.69l-5-1.92c-1.64-.68-3.23-1.52-4.85-2.26a88.27,88.27,0,0,1-17.85-11.55,116.56,116.56,0,0,1-14.55-14.95C53.17,229.05,49.15,223.56,45.07,218.08Z"/><path class="cls-1" d="M73.29,282.12c26.27,22.14,68.86,13.53,92.26,17.63s36.94,11.16,36.94,11.16"/><path class="cls-2" d="M73.29,282.12a84.58,84.58,0,0,0,31.21,9.26c10.68,1.26,21.57,1.25,32.7,1.4l8.4.18c2.82.12,5.68.23,8.55.46s5.78.52,8.72,1.05c.74.12,1.47.26,2.22.42s1.48.3,2.16.49c1.4.36,2.79.7,4.18,1.09a118.85,118.85,0,0,1,16.2,5.82c2.62,1.19,5.19,2.45,7.69,3.88a53.89,53.89,0,0,1,7.17,4.74c-5.54-1.37-11-2.48-16.47-3.46s-10.89-1.82-16.33-2.5c-1.35-.19-2.72-.32-4.07-.49-.7-.09-1.34-.16-2-.21s-1.29-.12-1.95-.15c-2.62-.15-5.29-.26-8-.26L137,303.78c-11.25-.17-22.87-.91-34.2-3.94l-2.11-.59-2.1-.67c-1.4-.43-2.77-1-4.14-1.49a62.91,62.91,0,0,1-7.94-3.81c-.64-.35-1.27-.74-1.89-1.14s-1.24-.78-1.84-1.19c-1.17-.89-2.39-1.67-3.48-2.66A40.55,40.55,0,0,1,73.29,282.12Z"/><path class="cls-1" d="M116.38,326.64c27.63,16.75,60.56.83,81,.63s33.53,4.21,33.53,4.21"/><path class="cls-2" d="M116.38,326.64a71.82,71.82,0,0,0,28,3.31c9.2-.57,18.34-2.52,27.8-4.38l7.18-1.36c2.43-.4,4.9-.82,7.41-1.12a67.32,67.32,0,0,1,7.76-.55,65.71,65.71,0,0,1,7.72.45,91.46,91.46,0,0,1,14.81,2.8,58.57,58.57,0,0,1,13.91,5.69,253.19,253.19,0,0,0-28.93.16c-1.18,0-2.36.17-3.54.25s-2.22.18-3.34.33c-2.2.31-4.46.68-6.75,1.17l-14.1,3c-9.62,1.88-19.82,3.28-30.14,2.21a54,54,0,0,1-15-3.66A40,40,0,0,1,116.38,326.64Z"/><path class="cls-1" d="M157.41,360.11c13.28,5.85,62.17-.38,90.16-24.59"/><path class="cls-2" d="M157.41,360.11a30.45,30.45,0,0,0,6,.14q3-.18,5.87-.58c3.89-.51,7.74-1.17,11.57-1.93,7.65-1.51,15.2-3.37,22.67-5.46s14.83-4.48,22.13-7.22,14.43-5.93,21.9-9.54a50.16,50.16,0,0,1-8.35,9.24,70.78,70.78,0,0,1-10.09,7.36,92.56,92.56,0,0,1-22.89,9.78,95.53,95.53,0,0,1-24.59,3.64,67.33,67.33,0,0,1-12.5-1A39.84,39.84,0,0,1,163,363,18.94,18.94,0,0,1,157.41,360.11Z"/><path class="cls-2" d="M289.43,296.51a34,34,0,1,0,34,34A34,34,0,0,0,289.43,296.51ZM292,311.06c1.78-5.22,6.11-8.47,9.67-7.25s5,6.43,3.21,11.65-6.11,8.47-9.67,7.26S290.2,316.29,292,311.06ZM278.66,303c3.59-1,7.75,2.52,9.29,7.93s-.12,10.62-3.72,11.64-7.75-2.53-9.29-7.93S275.06,304,278.66,303ZM262.24,327c-2.86-4.94-2.44-10.53.93-12.47s8.41.48,11.27,5.43,2.44,10.53-.93,12.47S265.09,332,262.24,327Zm32.43,29.79c-9.95.49-19,.8-23.09-5.8a11.67,11.67,0,0,1,1.88-14.42l.22-.22c2-1.87,3.66-3.05,4.22-4.42a12.54,12.54,0,0,1,2.57-4.13c6-6.21,13.4-5.31,17.37.08,4.45,6,3.18,7.31,8,11.12S307.69,356.18,294.67,356.81Zm10-23.88c-3.13-2.17-3.09-7.65.09-12.25s8.3-6.57,11.43-4.4,3.09,7.65-.09,12.25S307.81,335.1,304.68,332.93Z"/></svg>