<svg xmlns="http://www.w3.org/2000/svg" id="Layer_1" viewBox="0 0 501.5 504.7" width="501.5" height="504.7"><style>.st0{fill:url(#SVGID_1_)}.st1{fill:url(#SVGID_2_)}.st2{fill:#fff}</style><radialGradient id="SVGID_1_" cx="32.55" cy="2875.39" r="636.69" gradientTransform="matrix(1.0001 0 0 -1.0001 -.095 3366.185)" gradientUnits="userSpaceOnUse"><stop offset=".09" stop-color="#fa8f21"/><stop offset=".78" stop-color="#d82d7e"/></radialGradient><path d="M127.2 499.8c-29.8-1.4-46-6.3-56.8-10.5-14.3-5.6-24.5-12.2-35.2-22.9s-17.3-20.9-22.9-35.2c-4.2-10.8-9.2-27-10.5-56.8C.3 342.1 0 332.5 0 250.8s.3-91.3 1.8-123.6c1.4-29.8 6.3-46 10.5-56.8 5.6-14.3 12.2-24.5 22.9-35.2 10.7-10.7 20.9-17.3 35.2-22.9 10.8-4.2 27-9.2 56.8-10.5C159.4.3 169.1 0 250.8 0c81.7 0 91.3.3 123.6 1.8 29.8 1.4 46 6.3 56.8 10.5 14.3 5.5 24.5 12.2 35.2 22.9 10.7 10.7 17.3 20.9 22.9 35.2 4.2 10.8 9.2 27 10.5 56.8 1.5 32.3 1.8 41.9 1.8 123.6 0 81.7-.3 91.3-1.8 123.6-1.4 29.8-6.3 46-10.5 56.8-5.6 14.3-12.2 24.5-22.9 35.2-10.7 10.7-20.9 17.3-35.2 22.9-10.8 4.2-27 9.2-56.8 10.5-32.2 1.5-41.9 1.8-123.6 1.8-81.7-.1-91.4-.4-123.6-1.8" class="st0"/><radialGradient id="SVGID_2_" cx="347.45" cy="2891.49" r="560.3" gradientTransform="matrix(1.0001 0 0 -1.0001 -.095 3366.185)" gradientUnits="userSpaceOnUse"><stop offset=".64" stop-color="#8c3aaa" stop-opacity="0"/><stop offset="1" stop-color="#8c3aaa"/></radialGradient><path d="M127.2 499.8c-29.8-1.4-46-6.3-56.8-10.5-14.3-5.6-24.5-12.2-35.2-22.9s-17.3-20.9-22.9-35.2c-4.2-10.8-9.2-27-10.5-56.8C.3 342.1 0 332.5 0 250.8s.3-91.3 1.8-123.6c1.4-29.8 6.3-46 10.5-56.8 5.6-14.3 12.2-24.5 22.9-35.2 10.7-10.7 20.9-17.3 35.2-22.9 10.8-4.2 27-9.2 56.8-10.5C159.4.3 169.1 0 250.8 0c81.7 0 91.3.3 123.6 1.8 29.8 1.4 46 6.3 56.8 10.5 14.3 5.5 24.5 12.2 35.2 22.9 10.7 10.7 17.3 20.9 22.9 35.2 4.2 10.8 9.2 27 10.5 56.8 1.5 32.3 1.8 41.9 1.8 123.6 0 81.7-.3 91.3-1.8 123.6-1.4 29.8-6.3 46-10.5 56.8-5.6 14.3-12.2 24.5-22.9 35.2-10.7 10.7-20.9 17.3-35.2 22.9-10.8 4.2-27 9.2-56.8 10.5-32.2 1.5-41.9 1.8-123.6 1.8-81.7-.1-91.4-.4-123.6-1.8" class="st1"/><path d="M189.2 251.8c0-34.3 27.8-62.1 62.1-62.1s62.1 27.8 62.1 62.1-27.8 62.1-62.1 62.1-62.1-27.8-62.1-62.1m-33.6 0c0 52.8 42.8 95.7 95.7 95.7s95.7-42.8 95.7-95.7-42.8-95.7-95.7-95.7-95.7 42.9-95.7 95.7m172.8-99.4c0 12.3 10 22.4 22.3 22.4s22.4-10 22.4-22.3-10-22.4-22.3-22.4c-12.4-.1-22.4 9.9-22.4 22.3M176 403.5c-18.2-.8-28-3.9-34.6-6.4-8.7-3.4-14.9-7.4-21.4-13.9-6.5-6.5-10.6-12.7-13.9-21.4-2.6-6.6-5.6-16.4-6.4-34.6-.9-19.6-1.1-25.5-1.1-75.3s.2-55.6 1.1-75.3c.8-18.2 3.9-28 6.4-34.6 3.4-8.7 7.4-14.9 13.9-21.4s12.7-10.6 21.4-13.9c6.6-2.6 16.4-5.6 34.6-6.4 19.6-.9 25.5-1.1 75.3-1.1s55.6.2 75.3 1.1c18.2.8 28 3.9 34.6 6.4 8.7 3.4 14.9 7.4 21.4 13.9 6.5 6.5 10.6 12.7 13.9 21.4 2.6 6.6 5.6 16.4 6.4 34.6.9 19.7 1.1 25.5 1.1 75.3s-.2 55.6-1.1 75.3c-.8 18.2-3.9 28-6.4 34.6-3.4 8.7-7.4 14.9-13.9 21.4s-12.7 10.6-21.4 13.9c-6.6 2.6-16.4 5.6-34.6 6.4-19.6.9-25.5 1.1-75.3 1.1s-55.7-.2-75.3-1.1m-1.5-336.9c-19.8.9-33.4 4-45.2 8.7-12.3 4.8-22.6 11.1-33 21.5s-16.7 20.7-21.5 33c-4.6 11.8-7.8 25.4-8.7 45.2-.9 19.9-1.1 26.2-1.1 76.8s.2 56.9 1.1 76.8c.9 19.8 4 33.4 8.7 45.2 4.8 12.3 11.1 22.7 21.5 33s20.7 16.7 33 21.5c11.9 4.6 25.4 7.8 45.2 8.7 19.9.9 26.2 1.1 76.8 1.1s56.9-.2 76.8-1.1c19.8-.9 33.4-4 45.2-8.7 12.3-4.8 22.6-11.1 33-21.5 10.4-10.4 16.7-20.8 21.5-33 4.6-11.8 7.8-25.4 8.7-45.2.9-19.9 1.1-26.2 1.1-76.8s-.2-56.9-1.1-76.8c-.9-19.8-4-33.4-8.7-45.2-4.8-12.3-11.1-22.6-21.5-33-10.4-10.4-20.8-16.7-33-21.5-11.9-4.6-25.4-7.8-45.2-8.7-19.9-.9-26.2-1.1-76.8-1.1s-56.9.2-76.8 1.1" class="st2"/></svg>